<svg xmlns="http://www.w3.org/2000/svg" width="208" height="40" fill="none"><path fill="#4D5AE5" d="M40 20a19.937 19.937 0 0 1-5.858 14.142A19.937 19.937 0 0 1 20 40a19.937 19.937 0 0 1-14.142-5.858A19.937 19.937 0 0 1 0 20 19.938 19.938 0 0 1 5.858 5.858 19.938 19.938 0 0 1 20 0a19.937 19.937 0 0 1 14.142 5.858A19.937 19.937 0 0 1 40 20Z"/><g fill="#F4F4FD" clip-path="url(#a)"><path d="M31.977 15.056c-.057-1.275-.263-2.152-.558-2.911a5.857 5.857 0 0 0-1.388-2.129 5.906 5.906 0 0 0-2.124-1.383c-.764-.295-1.636-.502-2.912-.558-1.284-.06-1.692-.075-4.95-.075-3.259 0-3.667.014-4.947.07-1.275.057-2.152.263-2.911.558a5.856 5.856 0 0 0-2.129 1.388 5.91 5.91 0 0 0-1.383 2.124c-.295.764-.502 1.636-.558 2.911-.06 1.285-.075 1.693-.075 4.951 0 3.259.014 3.667.07 4.947.057 1.275.263 2.151.559 2.911a5.918 5.918 0 0 0 1.387 2.129c.6.61 1.327 1.083 2.124 1.383.764.295 1.636.501 2.912.558 1.28.056 1.688.07 4.946.07s3.666-.014 4.946-.07c1.275-.057 2.152-.263 2.912-.558a6.139 6.139 0 0 0 3.511-3.512c.296-.764.502-1.636.558-2.911.056-1.28.07-1.688.07-4.947 0-3.258-.004-3.666-.06-4.946Zm-2.162 9.799c-.051 1.172-.248 1.805-.412 2.227a3.981 3.981 0 0 1-2.279 2.278c-.422.165-1.06.361-2.227.413-1.266.056-1.645.07-4.848.07-3.202 0-3.586-.014-4.848-.07-1.172-.052-1.805-.248-2.227-.413a3.693 3.693 0 0 1-1.378-.895 3.73 3.73 0 0 1-.896-1.378c-.164-.422-.36-1.06-.412-2.227-.056-1.266-.07-1.646-.07-4.848 0-3.203.014-3.587.07-4.848.051-1.172.248-1.805.412-2.227.193-.52.498-.994.9-1.379a3.725 3.725 0 0 1 1.38-.895c.421-.164 1.059-.36 2.226-.413 1.266-.056 1.646-.07 4.848-.07 3.207 0 3.587.014 4.848.07 1.172.052 1.805.249 2.227.413.52.192.994.497 1.378.895.399.39.703.858.896 1.379.164.422.36 1.06.412 2.227.056 1.266.07 1.646.07 4.848s-.014 3.577-.07 4.843Z"/><path d="M20.044 13.837a6.167 6.167 0 0 0-6.165 6.165 6.167 6.167 0 0 0 6.165 6.166 6.167 6.167 0 0 0 6.166-6.166 6.167 6.167 0 0 0-6.166-6.165Zm0 10.165a4 4 0 1 1 .002-8 4 4 0 0 1-.002 8ZM27.893 13.593a1.44 1.44 0 1 1-2.879 0 1.44 1.44 0 0 1 2.879 0Z"/></g><path fill="#4D5AE5" d="M96 20a19.937 19.937 0 0 1-5.858 14.142A19.937 19.937 0 0 1 76 40a19.937 19.937 0 0 1-14.142-5.858A19.937 19.937 0 0 1 56 20a19.937 19.937 0 0 1 5.858-14.142A19.937 19.937 0 0 1 76 0a19.937 19.937 0 0 1 14.142 5.858A19.937 19.937 0 0 1 96 20Z"/><g clip-path="url(#b)"><path fill="#F4F4FD" d="M88 12.559c-.892.391-1.844.65-2.835.777a4.893 4.893 0 0 0 2.164-2.72 9.833 9.833 0 0 1-3.12 1.191 4.919 4.919 0 0 0-8.511 3.364c0 .39.034.766.115 1.123-4.091-.2-7.71-2.16-10.142-5.147a4.954 4.954 0 0 0-.674 2.487c0 1.704.878 3.215 2.186 4.089a4.859 4.859 0 0 1-2.223-.606v.054a4.943 4.943 0 0 0 3.942 4.835c-.4.109-.837.162-1.29.162a4.35 4.35 0 0 1-.931-.084c.637 1.948 2.446 3.38 4.597 3.427a9.886 9.886 0 0 1-6.1 2.099c-.404 0-.791-.018-1.178-.068a13.852 13.852 0 0 0 7.548 2.208c9.054 0 14.004-7.5 14.004-14.001 0-.218-.008-.428-.018-.636A9.816 9.816 0 0 0 88 12.559Z"/></g><path fill="#4D5AE5" d="M152 20a19.939 19.939 0 0 1-5.858 14.142A19.936 19.936 0 0 1 132 40a19.936 19.936 0 0 1-14.142-5.858A19.939 19.939 0 0 1 112 20a19.939 19.939 0 0 1 5.858-14.142A19.936 19.936 0 0 1 132 0a19.936 19.936 0 0 1 14.142 5.858A19.939 19.939 0 0 1 152 20Z"/><g clip-path="url(#c)"><path fill="#F4F4FD" d="M135.997 11.985h2.191V8.169C137.81 8.117 136.51 8 134.996 8c-3.159 0-5.323 1.987-5.323 5.639V17h-3.486v4.266h3.486V32h4.274V21.267h3.345l.531-4.266h-3.877v-2.939c.001-1.233.333-2.077 2.051-2.077Z"/></g><path fill="#4D5AE5" d="M208 20a19.939 19.939 0 0 1-5.858 14.142A19.936 19.936 0 0 1 188 40a19.936 19.936 0 0 1-14.142-5.858A19.939 19.939 0 0 1 168 20a19.939 19.939 0 0 1 5.858-14.142A19.936 19.936 0 0 1 188 0a19.936 19.936 0 0 1 14.142 5.858A19.939 19.939 0 0 1 208 20Z"/><g fill="#F4F4FD" clip-path="url(#d)"><path d="M199.994 32H200v-8.803c0-4.306-.927-7.623-5.961-7.623-2.42 0-4.044 1.328-4.707 2.587h-.07v-2.185h-4.773V32h4.97v-7.934c0-2.089.396-4.109 2.983-4.109 2.549 0 2.587 2.384 2.587 4.243V32h4.965ZM176.396 15.977h4.976V32h-4.976V15.977ZM178.882 8A2.883 2.883 0 0 0 176 10.882c0 1.591 1.291 2.909 2.882 2.909 1.591 0 2.882-1.318 2.882-2.909A2.884 2.884 0 0 0 178.882 8Z"/></g><defs><clipPath id="a"><path fill="#fff" d="M8 8h24v24H8z"/></clipPath><clipPath id="b"><path fill="#fff" d="M64 8h24v24H64z"/></clipPath><clipPath id="c"><path fill="#fff" d="M120 8h24v24h-24z"/></clipPath><clipPath id="d"><path fill="#fff" d="M176 8h24v24h-24z"/></clipPath></defs></svg>